<svg xmlns="http://www.w3.org/2000/svg" height="40px" viewBox="0 -960 960 960" width="40px" fill="#6d4aff"><path d="M833.33-80 724-189.33q-21.33 15.66-46.33 22.5-25 6.83-51 6.83-72.23 0-122.78-50.58-50.56-50.58-50.56-122.83 0-72.26 50.58-122.76t122.84-50.5q72.25 0 122.75 50.56Q800-405.56 800-333.33q0 26-6.83 51.33-6.84 25.33-22.5 46L880-126.67 833.33-80ZM626.57-226.67q44.76 0 75.76-30.9 31-30.91 31-75.67 0-44.76-30.9-75.76-30.91-31-75.67-31Q582-440 551-409.09q-31 30.9-31 75.66t30.91 75.76q30.9 31 75.66 31ZM840-540h-66.67v-233.33h-66.66v100H253.33v-100h-66.66v586.66H420V-120H186.67q-28.34 0-47.5-19.17Q120-158.33 120-186.67v-586.66q0-28.34 19.17-47.5Q158.33-840 186.67-840H377q8.33-35 37.33-57.5T480-920q37.33 0 66.17 22.5Q575-875 583.33-840h190q28.34 0 47.5 19.17Q840-801.67 840-773.33V-540ZM480-773.33q17 0 28.5-11.5t11.5-28.5q0-17-11.5-28.5t-28.5-11.5q-17 0-28.5 11.5t-11.5 28.5q0 17 11.5 28.5t28.5 11.5Z"/></svg>
